<svg width="5" height="9" viewBox="0 0 5 9" fill="none" xmlns="http://www.w3.org/2000/svg">
<path d="M0.193362 1.1551C0.0694885 1.0278 -3.5599e-07 0.855907 -3.6382e-07 0.676769C-3.7165e-07 0.497631 0.0694885 0.325732 0.193362 0.198437C0.254191 0.135589 0.326698 0.0856782 0.406662 0.0516108C0.486626 0.0175433 0.572451 -2.1785e-07 0.659142 -2.21639e-07C0.745833 -2.25429e-07 0.831658 0.0175433 0.911623 0.0516107C0.991587 0.0856781 1.06409 0.135589 1.12492 0.198437L4.80694 4.02118C4.93064 4.14876 5 4.32078 5 4.5C5 4.67922 4.93065 4.85124 4.80694 4.97882L1.12492 8.80156C1.06409 8.86441 0.991588 8.91432 0.911623 8.94839C0.831659 8.98246 0.745834 9 0.659143 9C0.572452 9 0.486627 8.98246 0.406662 8.94839C0.326698 8.91432 0.254191 8.86441 0.193363 8.80156C0.0694889 8.67427 -2.17521e-08 8.50237 -2.95825e-08 8.32323C-3.74129e-08 8.14409 0.0694888 7.97219 0.193362 7.8449L3.213 4.49853L0.193362 1.1551Z" fill="black"/>
</svg>
