<svg width="6" height="10" viewBox="0 0 6 10" fill="none" xmlns="http://www.w3.org/2000/svg">
<path d="M4.99979 8.01999C5.12865 8.15012 5.20093 8.32585 5.20093 8.50898C5.20093 8.69212 5.12865 8.86785 4.99979 8.99798C4.93652 9.06223 4.8611 9.11326 4.77792 9.14809C4.69474 9.18291 4.60547 9.20085 4.51529 9.20085C4.42512 9.20085 4.33584 9.18291 4.25267 9.14809C4.16949 9.11326 4.09407 9.06223 4.03079 8.99798L0.200794 5.08998C0.0721204 4.95955 -2.21436e-05 4.7837 -2.21356e-05 4.60048C-2.21276e-05 4.41727 0.0721204 4.24142 0.200794 4.11098L4.03079 0.202985C4.09407 0.138735 4.16949 0.0877117 4.25267 0.0528845C4.33584 0.0180573 4.42512 0.000122036 4.51529 0.00012204C4.60547 0.000122044 4.69474 0.0180574 4.77792 0.0528846C4.8611 0.0877118 4.93652 0.138735 4.99979 0.202985C5.12865 0.333119 5.20093 0.508852 5.20093 0.691985C5.20093 0.875118 5.12865 1.05085 4.99979 1.18098L1.85879 4.60198L4.99979 8.01999Z" fill="black"/>
</svg>
