<svg width="9" height="9" viewBox="0 0 9 9" fill="none" xmlns="http://www.w3.org/2000/svg">
<path fill-rule="evenodd" clip-rule="evenodd" d="M3.15001 1.35C2.15595 1.35 1.35 2.15595 1.35 3.15001V4.05H0.9C0.40275 4.05 0 4.45276 0 4.95C0 5.44951 0 6.25052 0 6.75001C0 7.24725 0.40275 7.65 0.9 7.65H1.40716C1.48681 7.9587 1.6479 8.24356 1.8774 8.47261C2.2149 8.81056 2.67255 9 3.15001 9H5.85002C6.32746 9 6.78512 8.81056 7.12261 8.47261C7.35212 8.24356 7.51319 7.9587 7.59285 7.65H8.10001C8.59725 7.65 9 7.24725 9 6.75001V4.95C9 4.45276 8.59725 4.05 8.10001 4.05H7.65V3.15001C7.65 2.15595 6.84405 1.35 5.85002 1.35V0.9C5.85002 0.40275 5.44726 0 4.95 0H4.05C3.55277 0 3.15001 0.40275 3.15001 0.9V1.35ZM6.75001 6.75001V7.20002C6.75001 7.43852 6.65505 7.66757 6.48631 7.83631C6.31757 8.00506 6.08852 8.10001 5.85002 8.10001H3.15001C2.9115 8.10001 2.68245 8.00506 2.5137 7.83631C2.34495 7.66757 2.25 7.43852 2.25 7.20002V6.75001C2.25 6.5115 2.34495 6.28245 2.5137 6.11371C2.68245 5.94497 2.9115 5.85002 3.15001 5.85002H5.85002C6.08852 5.85002 6.31757 5.94497 6.48631 6.11371C6.65505 6.28245 6.75001 6.5115 6.75001 6.75001ZM7.65 4.95H8.10001V6.75001H7.65V4.95ZM1.35 4.95V6.75001H0.9V4.95H1.35ZM6.75001 5.19122V3.15001C6.75001 2.65275 6.34725 2.25 5.85002 2.25H3.15001C2.65275 2.25 2.25 2.65275 2.25 3.15001V5.19122C2.52135 5.03462 2.8314 4.95 3.15001 4.95H5.85002C6.16862 4.95 6.47866 5.03462 6.75001 5.19122ZM4.95 1.35H4.05V0.9H4.95V1.35Z" fill="black"/>
</svg>
