<svg width="11" height="9" viewBox="0 0 11 9" fill="none" xmlns="http://www.w3.org/2000/svg">
<path d="M7.10418 1.7561C7.60832 1.7561 8.02082 1.36098 8.02082 0.878049C8.02082 0.395121 7.60832 0 7.10418 0C6.6 0 6.1875 0.395121 6.1875 0.878049C6.1875 1.36098 6.6 1.7561 7.10418 1.7561ZM2.29167 4.60977C1.00833 4.60977 0 5.57562 0 6.80487C0 8.03415 1.00833 9 2.29167 9C3.575 9 4.58332 8.03415 4.58332 6.80487C4.58332 5.57562 3.575 4.60977 2.29167 4.60977ZM2.29167 8.34147C1.42083 8.34147 0.6875 7.63902 0.6875 6.80487C0.6875 5.97072 1.42083 5.2683 2.29167 5.2683C3.1625 5.2683 3.89582 5.97072 3.89582 6.80487C3.89582 7.63902 3.1625 8.34147 2.29167 8.34147ZM4.95 3.95121L6.05 2.89756L6.41668 3.24879C7.0125 3.81951 7.79168 4.17072 8.75418 4.17072V3.29268C8.06668 3.29268 7.51668 3.02928 7.10418 2.63415L6.23332 1.8C6.00418 1.62439 5.775 1.53659 5.5 1.53659C5.225 1.53659 4.99582 1.62439 4.85832 1.8L3.575 3.02928C3.39168 3.20487 3.3 3.42438 3.3 3.64389C3.3 3.90732 3.39168 4.12683 3.575 4.25853L5.04168 5.48781V7.68294H5.95832V4.96098L4.95 3.95121ZM8.70832 4.60977C7.425 4.60977 6.41668 5.57562 6.41668 6.80487C6.41668 8.03415 7.425 9 8.70832 9C9.99168 9 11 8.03415 11 6.80487C11 5.57562 9.99168 4.60977 8.70832 4.60977ZM8.70832 8.34147C7.8375 8.34147 7.10418 7.63902 7.10418 6.80487C7.10418 5.97072 7.8375 5.2683 8.70832 5.2683C9.57918 5.2683 10.3125 5.97072 10.3125 6.80487C10.3125 7.63902 9.57918 8.34147 8.70832 8.34147Z" fill="black"/>
</svg>
