<svg width="9" height="9" viewBox="0 0 9 9" fill="none" xmlns="http://www.w3.org/2000/svg">
<g clip-path="url(#clip0_35_20)">
<path d="M4.5 0C6.98529 0 9 2.01472 9 4.5C9 6.98529 6.98529 9 4.5 9C2.01472 9 0 6.98529 0 4.5C0 2.01472 2.01472 0 4.5 0ZM4.5 0.75C2.42893 0.75 0.75 2.42893 0.75 4.5C0.75 6.57108 2.42893 8.25 4.5 8.25C6.57108 8.25 8.25 6.57108 8.25 4.5C8.25 2.42893 6.57108 0.75 4.5 0.75ZM3.93714 5.28183L6.09021 3.123C6.23646 2.97634 6.47388 2.97603 6.62055 3.12228C6.7509 3.25227 6.76563 3.45432 6.66456 3.6006L6.62124 3.65262L4.20303 6.07731C4.07289 6.20778 3.87063 6.22242 3.72432 6.12108L3.67233 6.07767L2.35984 4.76517C2.21339 4.61871 2.21339 4.38129 2.35984 4.23483C2.49001 4.10466 2.69208 4.0902 2.83823 4.19145L2.89016 4.23483L3.93714 5.28183L6.09021 3.123L3.93714 5.28183Z" fill="black"/>
</g>
<defs>
<clipPath id="clip0_35_20">
<rect width="9" height="9" fill="white"/>
</clipPath>
</defs>
</svg>
