<svg width="9" height="9" viewBox="0 0 9 9" fill="none" xmlns="http://www.w3.org/2000/svg">
<g clip-path="url(#clip0_35_22)">
<path d="M4.5 0C3.60999 0 2.73996 0.263921 1.99994 0.758388C1.25991 1.25285 0.683139 1.95566 0.342543 2.77793C0.00194991 3.60018 -0.0871652 4.50498 0.0864682 5.37789C0.260102 6.25083 0.688686 7.05264 1.31802 7.68198C1.94736 8.31132 2.74918 8.7399 3.62208 8.91354C4.49502 9.08715 5.39982 8.99805 6.22209 8.65746C7.04433 8.31687 7.74714 7.74009 8.2416 7.00005C8.73609 6.26004 9 5.39001 9 4.5C9 3.30651 8.52588 2.16193 7.68198 1.31802C6.83808 0.474105 5.69349 0 4.5 0ZM4.5 8.35713C3.73713 8.35713 2.99139 8.13093 2.35709 7.70709C1.72278 7.28328 1.2284 6.68085 0.936465 5.97606C0.644529 5.27127 0.568143 4.49571 0.716973 3.74751C0.865803 2.9993 1.23316 2.31202 1.77259 1.77259C2.31202 1.23316 2.9993 0.8658 3.74751 0.71697C4.49571 0.568143 5.27127 0.644526 5.97606 0.936465C6.68088 1.2284 7.28328 1.72278 7.70709 2.35708C8.13093 2.99139 8.35713 3.73713 8.35713 4.5C8.35713 5.52297 7.95078 6.50406 7.22742 7.22742C6.50406 7.95075 5.52297 8.35713 4.5 8.35713Z" fill="black"/>
<path d="M6.65683 2.34325C6.62695 2.31312 6.5914 2.28921 6.55222 2.27289C6.51304 2.25657 6.47104 2.24817 6.42862 2.24817C6.38617 2.24817 6.34417 2.25657 6.30499 2.27289C6.26581 2.28921 6.23026 2.31312 6.20038 2.34325L4.50004 4.04682L2.79968 2.34325C2.73915 2.28272 2.65706 2.24872 2.57146 2.24872C2.48586 2.24872 2.40378 2.28272 2.34325 2.34325C2.28272 2.40377 2.24872 2.48586 2.24872 2.57146C2.24872 2.65706 2.28272 2.73915 2.34325 2.79967L4.04683 4.50003L2.34325 6.2004C2.31312 6.23028 2.28921 6.26583 2.27289 6.30498C2.25657 6.34416 2.24817 6.38616 2.24817 6.42861C2.24817 6.47103 2.25657 6.51306 2.27289 6.55221C2.28921 6.59139 2.31312 6.62694 2.34325 6.65682C2.37313 6.68694 2.40868 6.71085 2.44785 6.72717C2.48702 6.74349 2.52903 6.75189 2.57146 6.75189C2.6139 6.75189 2.65591 6.74349 2.69508 6.72717C2.73425 6.71085 2.7698 6.68694 2.79968 6.65682L4.50004 4.95324L6.20038 6.65682C6.23026 6.68694 6.26581 6.71085 6.30499 6.72717C6.34417 6.74349 6.38617 6.75189 6.42862 6.75189C6.47104 6.75189 6.51304 6.74349 6.55222 6.72717C6.5914 6.71085 6.62695 6.68694 6.65683 6.65682C6.68695 6.62694 6.71086 6.59139 6.72718 6.55221C6.7435 6.51306 6.7519 6.47103 6.7519 6.42861C6.7519 6.38616 6.7435 6.34416 6.72718 6.30498C6.71086 6.26583 6.68695 6.23028 6.65683 6.2004L4.95325 4.50003L6.65683 2.79967C6.68695 2.76979 6.71086 2.73424 6.72718 2.69507C6.7435 2.6559 6.7519 2.61389 6.7519 2.57146C6.7519 2.52903 6.7435 2.48701 6.72718 2.44785C6.71086 2.40868 6.68695 2.37313 6.65683 2.34325Z" fill="black"/>
</g>
<defs>
<clipPath id="clip0_35_22">
<rect width="9" height="9" fill="white"/>
</clipPath>
</defs>
</svg>
