<svg width="10" height="9" viewBox="0 0 10 9" fill="none" xmlns="http://www.w3.org/2000/svg">
<path d="M1.5 6H2.44999C2.95 6 3.4 5.75001 3.7 5.34999L4 4.89999L4.3 5.34999C4.6 5.75001 5.05001 6 5.55002 6H6.5C7.35002 6 8 5.34999 8 4.5V3.5C8 2.64998 7.35002 2 6.5 2H1.5C0.650002 2 0 2.64998 0 3.5V4.5C0 5.34999 0.650002 6 1.5 6ZM1 3.5C1 3.2 1.2 2.99999 1.5 2.99999H6.5C6.8 2.99999 7.00001 3.2 7.00001 3.5V4.5C7.00001 4.8 6.8 5.00001 6.5 5.00001H5.55002C5.40002 5.00001 5.25002 4.89999 5.15 4.8L4.45 3.74999C4.3 3.59999 4.15 3.5 4 3.5C3.85 3.5 3.7 3.59999 3.60001 3.69999L2.89999 4.74999C2.8 4.89999 2.65 5.00001 2.44999 5.00001H1.5C1.2 5.00001 1 4.8 1 4.5V3.5Z" fill="black"/>
<path d="M5.76469 7.94116C5.18235 7.94116 4.70588 7.46469 4.70588 6.88234C4.70588 6.5647 4.4941 6.35292 4.17646 6.35292C3.85881 6.35292 3.64707 6.5647 3.64707 6.88234C3.64707 8.04706 4.60001 9 5.76469 9H7.88235C9.04706 9 10 8.04706 10 6.88234V0.52941C10 0.211763 9.78823 0 9.47058 0C9.15293 0 8.94116 0.211763 8.94116 0.52941V6.88234C8.94116 7.46469 8.46469 7.94116 7.88235 7.94116H5.76469ZM1.52941 0.52941C1.21176 0.52941 1 0.741175 1 1.05883C1 1.37647 1.21176 1.58822 1.52941 1.58822H6.82353C7.14118 1.58822 7.35292 1.37647 7.35292 1.05883C7.35292 0.741175 7.14118 0.52941 6.82353 0.52941H1.52941Z" fill="black"/>
</svg>
