<svg width="9" height="9" viewBox="0 0 9 9" fill="none" xmlns="http://www.w3.org/2000/svg">
<g clip-path="url(#clip0_35_38)">
<path d="M4.1805 5.9805C4.16114 6.00189 4.14311 6.02442 4.1265 6.048C4.10948 6.07307 4.09585 6.10033 4.086 6.129C4.07301 6.15451 4.06394 6.18182 4.059 6.21C4.05679 6.23996 4.05679 6.27004 4.059 6.3C4.05748 6.35904 4.0698 6.41759 4.095 6.471C4.11521 6.52685 4.14746 6.57756 4.18945 6.61955C4.23144 6.66154 4.28215 6.69379 4.338 6.714C4.39187 6.73781 4.45011 6.7501 4.509 6.7501C4.56789 6.7501 4.62613 6.73781 4.68 6.714C4.73585 6.69379 4.78656 6.66154 4.82855 6.61955C4.87054 6.57756 4.90279 6.52685 4.923 6.471C4.94298 6.41628 4.95216 6.35822 4.95 6.3C4.95033 6.24078 4.93899 6.18207 4.9166 6.12725C4.8942 6.0724 4.86121 6.02254 4.8195 5.9805C4.77766 5.93833 4.72791 5.90485 4.67306 5.88199C4.61823 5.85915 4.5594 5.84738 4.5 5.84738C4.4406 5.84738 4.38177 5.85915 4.32694 5.88199C4.27209 5.90485 4.22234 5.93833 4.1805 5.9805ZM4.5 0C3.60998 0 2.73996 0.263921 1.99994 0.758386C1.25992 1.25285 0.683139 1.95566 0.342545 2.77791C0.00194977 3.60018 -0.0871652 4.50499 0.0864682 5.37791C0.260103 6.25081 0.688685 7.05263 1.31802 7.68199C1.94736 8.31132 2.74919 8.7399 3.62209 8.91352C4.49501 9.08717 5.39982 8.99805 6.22209 8.65746C7.04435 8.31685 7.74715 7.74008 8.24161 7.00007C8.73607 6.26004 9 5.39002 9 4.5C9 3.90906 8.88362 3.32388 8.65746 2.77791C8.4313 2.23196 8.09985 1.73588 7.68199 1.31802C7.26411 0.900157 6.76805 0.568689 6.22209 0.342543C5.67612 0.116396 5.09094 0 4.5 0ZM4.5 8.1C3.788 8.1 3.09196 7.88886 2.49995 7.4933C1.90793 7.09771 1.44651 6.53547 1.17403 5.87767C0.901561 5.21985 0.830268 4.49601 0.969174 3.79767C1.10808 3.09934 1.45095 2.45788 1.95442 1.95441C2.45789 1.45095 3.09934 1.10808 3.79767 0.969174C4.49601 0.830265 5.21985 0.901558 5.87767 1.17403C6.53547 1.44651 7.09771 1.90793 7.4933 2.49995C7.88886 3.09196 8.1 3.788 8.1 4.5C8.1 5.45477 7.72071 6.37046 7.04559 7.04559C6.37046 7.72071 5.45477 8.1 4.5 8.1ZM4.5 2.25C4.26289 2.24985 4.02989 2.31215 3.82451 2.43065C3.61913 2.54914 3.44857 2.71965 3.33 2.925C3.29745 2.97622 3.27559 3.03349 3.26574 3.09338C3.25589 3.15327 3.25826 3.21452 3.27268 3.27348C3.28713 3.33242 3.31334 3.38783 3.34975 3.43641C3.38616 3.48495 3.43201 3.52563 3.48457 3.556C3.5371 3.58637 3.59524 3.60581 3.65549 3.61314C3.71574 3.62044 3.77686 3.61551 3.83513 3.59859C3.89343 3.58169 3.94768 3.55315 3.99466 3.51473C4.04164 3.47631 4.08037 3.42877 4.1085 3.375C4.14815 3.30632 4.20524 3.24936 4.274 3.20984C4.34273 3.17034 4.4207 3.14969 4.5 3.15C4.61934 3.15 4.73382 3.19742 4.81819 3.28181C4.90258 3.36618 4.95 3.48066 4.95 3.6C4.95 3.71934 4.90258 3.83379 4.81819 3.91819C4.73382 4.00258 4.61934 4.05 4.5 4.05C4.38066 4.05 4.26621 4.09742 4.18181 4.18181C4.09742 4.26618 4.05 4.38066 4.05 4.5V4.95C4.05 5.06934 4.09742 5.18379 4.18181 5.26819C4.26621 5.35258 4.38066 5.4 4.5 5.4C4.61934 5.4 4.73382 5.35258 4.81819 5.26819C4.90258 5.18379 4.95 5.06934 4.95 4.95V4.869C5.24762 4.761 5.49782 4.55184 5.65686 4.27809C5.81588 4.00433 5.87363 3.68339 5.82004 3.37135C5.76643 3.05933 5.60484 2.77606 5.36354 2.57108C5.12226 2.36611 4.81659 2.25246 4.5 2.25Z" fill="black"/>
</g>
<defs>
<clipPath id="clip0_35_38">
<rect width="9" height="9" fill="white"/>
</clipPath>
</defs>
</svg>
