<svg width="11" height="11" viewBox="0 0 11 11" fill="none" xmlns="http://www.w3.org/2000/svg">
<path d="M5.38158 10C7.80147 10 9.76316 7.98529 9.76316 5.5C9.76316 3.01471 7.80147 1 5.38158 1C2.96168 1 1 3.01471 1 5.5C1 7.98529 2.96168 10 5.38158 10Z" stroke="black" stroke-linecap="round" stroke-linejoin="round"/>
<path d="M4.28601 3.43713H6.4768L5.19912 5.31251C5.40927 5.31251 5.61621 5.36575 5.80155 5.4675C5.98688 5.56925 6.14494 5.71634 6.26172 5.89584C6.37846 6.0753 6.45034 6.28158 6.47093 6.49638C6.49152 6.71118 6.46022 6.92787 6.37979 7.12729C6.29936 7.32668 6.17232 7.50267 6.00984 7.6396C5.8474 7.77652 5.65455 7.87019 5.44843 7.91228C5.24232 7.95441 5.02925 7.94364 4.82816 7.88099C4.62703 7.81833 4.44406 7.70572 4.29545 7.5531" stroke="black" stroke-linecap="round" stroke-linejoin="round"/>
</svg>
