<svg width="11" height="9" viewBox="0 0 11 9" fill="none" xmlns="http://www.w3.org/2000/svg">
<path d="M11 1.07826C10.5866 1.25852 10.1494 1.37769 9.702 1.43204C10.174 1.14864 10.5277 0.702801 10.6975 0.177223C10.254 0.442595 9.76843 0.629563 9.262 0.730007C8.9235 0.361064 8.47273 0.115475 7.9804 0.0317584C7.48807 -0.051958 6.982 0.0309331 6.5416 0.267431C6.10117 0.50393 5.7513 0.880657 5.54687 1.33853C5.34247 1.79641 5.295 2.30953 5.412 2.79742C4.5152 2.75183 3.63793 2.51714 2.83726 2.10858C2.03658 1.70002 1.33037 1.12674 0.7645 0.425977C0.566027 0.774322 0.461737 1.16882 0.462 1.57024C0.461297 1.94303 0.55232 2.31021 0.726967 2.63909C0.90161 2.96796 1.15446 3.24833 1.463 3.45523C1.10439 3.44543 0.753437 3.34871 0.44 3.17332V3.20095C0.442687 3.72327 0.624797 4.22862 0.955523 4.63153C1.28625 5.03444 1.74529 5.31017 2.255 5.41209C2.05879 5.4721 1.85508 5.50376 1.65 5.50608C1.50804 5.5044 1.36643 5.49145 1.2265 5.46738C1.37165 5.91667 1.65254 6.30933 2.03009 6.59071C2.40764 6.87208 2.86307 7.02817 3.333 7.03727C2.53946 7.66482 1.55974 8.00734 0.55 8.01017C0.366153 8.01078 0.182455 7.99972 0 7.977C1.03094 8.64602 2.23235 9.00117 3.4595 8.99965C4.30633 9.00849 5.14643 8.84765 5.9307 8.52651C6.715 8.2054 7.42777 7.7304 8.02737 7.12932C8.62697 6.52822 9.10137 5.81307 9.4229 5.02564C9.74443 4.2382 9.90663 3.39429 9.9 2.54314C9.9 2.44917 9.9 2.34966 9.9 2.25017C10.3316 1.92668 10.7038 1.53012 11 1.07826Z" fill="black"/>
</svg>
