<svg width="7" height="9" viewBox="0 0 7 9" fill="none" xmlns="http://www.w3.org/2000/svg">
<g clip-path="url(#clip0_35_66)">
<path d="M3.75291 0.0771726C3.67822 0.0268771 3.59014 0 3.5 0C3.40986 0 3.32178 0.0268771 3.24709 0.0771726C3.11162 0.167166 0 2.327 0 5.51276C0 6.43763 0.368748 7.32463 1.02513 7.97862C1.6815 8.63259 2.57175 9 3.5 9C4.42825 9 5.31851 8.63259 5.97487 7.97862C6.63124 7.32463 7 6.43763 7 5.51276C7 2.27301 3.88388 0.162666 3.75291 0.0771726ZM3.5 8.10007C2.81167 8.09889 2.15185 7.8259 1.66512 7.34094C1.17839 6.85599 0.904421 6.19858 0.903226 5.51276C0.903226 3.26293 2.80453 1.56656 3.5 1.0131C4.2 1.55756 6.09677 3.26293 6.09677 5.51276C6.09558 6.19858 5.82162 6.85599 5.33489 7.34094C4.84815 7.8259 4.18833 8.09889 3.5 8.10007Z" fill="black"/>
</g>
<defs>
<clipPath id="clip0_35_66">
<rect width="7" height="9" fill="white"/>
</clipPath>
</defs>
</svg>
