<svg width="10" height="6" viewBox="0 0 10 6" fill="none" xmlns="http://www.w3.org/2000/svg">
<path d="M8.01986 0.201134C8.15 0.0722816 8.32573 0 8.50886 0C8.692 0 8.86773 0.0722816 8.99786 0.201134C9.06211 0.264407 9.11314 0.339828 9.14796 0.423006C9.18279 0.506184 9.20073 0.595459 9.20073 0.685634C9.20073 0.775809 9.18279 0.865083 9.14796 0.948261C9.11314 1.03144 9.06211 1.10686 8.99786 1.17013L5.08986 5.00013C4.95943 5.12881 4.78358 5.20095 4.60036 5.20095C4.41714 5.20095 4.24129 5.12881 4.11086 5.00013L0.202863 1.17013C0.138613 1.10686 0.0875897 1.03144 0.0527625 0.948261C0.0179353 0.865083 0 0.775809 0 0.685634C0 0.595459 0.0179353 0.506184 0.0527625 0.423006C0.0875897 0.339828 0.138613 0.264407 0.202863 0.201134C0.332997 0.0722816 0.50873 0 0.691863 0C0.874996 0 1.05073 0.0722816 1.18086 0.201134L4.60186 3.34213L8.01986 0.201134Z" fill="black"/>
</svg>
