<svg width="9" height="9" viewBox="0 0 9 9" fill="none" xmlns="http://www.w3.org/2000/svg">
<path d="M8.48559 2.2243C8.47885 2.14357 8.4408 2.06828 8.37902 2.01344C8.31724 1.95863 8.23626 1.92832 8.15229 1.92857H2.66631V1.60714C2.66631 1.3514 2.56099 1.10613 2.37346 0.92529C2.18596 0.744452 1.93163 0.642857 1.66645 0.642857H0.666582V0.321429C0.666582 0.23618 0.631467 0.154424 0.568963 0.0941443C0.506459 0.0338651 0.421685 0 0.333291 0C0.244896 0 0.160123 0.0338651 0.0976188 0.0941443C0.0351148 0.154424 0 0.23618 0 0.321429V8.67858C0 8.76383 0.0351148 8.84559 0.0976188 8.90585C0.160123 8.96613 0.244896 9 0.333291 9C0.421685 9 0.506459 8.96613 0.568963 8.90585C0.631467 8.84559 0.666582 8.76383 0.666582 8.67858V7.71428H6.25587L6.33253 8.7043C6.33924 8.785 6.37729 8.86029 6.4391 8.91513C6.50088 8.96994 6.58186 9.00025 6.6658 9H6.69247C6.7363 8.99676 6.77901 8.98517 6.81819 8.96596C6.85734 8.94671 6.89217 8.92022 6.92068 8.88796C6.94919 8.8557 6.97078 8.81829 6.98423 8.77795C6.9977 8.73761 7.00275 8.69509 6.99911 8.65287L6.92245 7.71428H8.25561L8.33227 8.7043C8.33898 8.785 8.37704 8.86029 8.43885 8.91513C8.50063 8.96994 8.58161 9.00025 8.66555 9H8.69221C8.73604 8.99676 8.77876 8.98517 8.81793 8.96596C8.85708 8.94671 8.89191 8.92022 8.92042 8.88796C8.94893 8.8557 8.97052 8.81829 8.98397 8.77795C8.99745 8.73761 9.0025 8.69509 8.99885 8.65287L8.48559 2.2243ZM0.666582 5.78571V5.14286H1.66645C1.75485 5.14286 1.83962 5.17672 1.90213 5.23701C1.96464 5.29729 1.99973 5.37903 1.99973 5.4643V5.78571H0.666582ZM5.8426 2.57143L5.89593 3.21429H0.666582V2.57143H5.8426ZM1.66645 4.5H0.666582V3.85714H5.9459L6.09922 5.78571H2.66631V5.4643C2.66631 5.20853 2.56099 4.96328 2.37346 4.78243C2.18596 4.6016 1.93163 4.5 1.66645 4.5ZM7.99897 4.5H6.6658L6.61583 3.85714H7.949L7.99897 4.5ZM6.71913 5.14286H8.05229L8.10229 5.78571H6.76913L6.71913 5.14286ZM7.89567 3.21429H6.56251L6.51251 2.57143H7.84567L7.89567 3.21429ZM1.66645 1.28571C1.75485 1.28571 1.83962 1.31958 1.90213 1.37986C1.96464 1.44014 1.99973 1.52189 1.99973 1.60714V1.92857H0.666582V1.28571H1.66645ZM0.666582 7.07143V6.42857H6.15254L6.20254 7.07143H0.666582ZM6.87245 7.07143L6.81912 6.42857H8.15229L8.20229 7.07143H6.87245Z" fill="black"/>
</svg>
