<svg width="9" height="9" viewBox="0 0 9 9" fill="none" xmlns="http://www.w3.org/2000/svg">
<path d="M8.62504 4.12501V3.74999C8.62504 3.5429 8.45718 3.375 8.25008 3.375C8.04299 3.375 7.87512 3.5429 7.87512 3.74999V4.12501H7.12518V3.74999C7.12518 3.5429 6.95731 3.375 6.75022 3.375C6.54312 3.375 6.37526 3.5429 6.37526 3.74999V4.12501H5.62531V3.74999C5.62531 3.5429 5.45741 3.375 5.25035 3.375C5.04326 3.375 4.87536 3.5429 4.87536 3.74999V4.12501H4.5004V2.99999H4.87536C5.22608 2.99999 5.38485 2.56146 5.11541 2.33691L3.0005 0.574349V0.374996C3.0005 0.167889 2.83262 0 2.62553 0C2.41845 0 2.25057 0.167889 2.25057 0.374996V0.574349L0.135667 2.33691C-0.13375 2.56146 0.0250033 2.99999 0.375713 2.99999H0.750677V6.75C0.578619 6.75 0.428636 6.86709 0.386907 7.03403L0.0119262 8.53405C-0.0472371 8.77072 0.131764 9 0.375694 9H4.87533H5.62528H7.12518H8.62504C8.83213 9 9 8.8321 9 8.62501V4.5C9.00003 4.29288 8.83213 4.12501 8.62504 4.12501ZM2.62553 1.23814L3.83968 2.25H1.4114L2.62553 1.23814ZM1.50062 2.99999H3.75045V4.5V6.75H1.50062V2.99999ZM1.04345 7.50001H1.12566H4.12541H4.20762L4.39513 8.25002H0.855962L1.04345 7.50001ZM6.00027 8.25002V7.50001C6.00027 7.29273 6.16798 7.12502 6.37523 7.12502C6.58248 7.12502 6.75019 7.29273 6.75019 7.50001V8.25002H6.00027ZM8.25008 8.25002H7.50013V7.50001C7.50013 6.87851 6.99666 6.37501 6.37523 6.37501C5.75379 6.37501 5.25032 6.87851 5.25032 7.50001V8.25002H5.16811L4.86413 7.03406C4.82242 6.86712 4.67243 6.75 4.50037 6.75V4.87499H8.25008V8.25002Z" fill="black"/>
</svg>
