<svg width="8" height="9" viewBox="0 0 8 9" fill="none" xmlns="http://www.w3.org/2000/svg">
<path d="M5.77777 1.8V4.5C5.77777 4.995 6.17777 5.4 6.66667 5.4H7.1111V8.55C7.1111 8.7975 7.3111 9 7.55557 9C7.8 9 8 8.7975 8 8.55V0.5085C8 0.216 7.7289 3.97364e-08 7.4489 0.0675C6.4889 0.306 5.77777 1.1295 5.77777 1.8ZM3.55557 3.15H2.66667V0.45C2.66667 0.2025 2.46667 0 2.22222 0C1.97778 0 1.77778 0.2025 1.77778 0.45V3.15H0.88889V0.45C0.88889 0.2025 0.68889 0 0.444443 0C0.2 0 0 0.2025 0 0.45V3.15C0 4.1445 0.795557 4.95 1.77778 4.95V8.55C1.77778 8.7975 1.97778 9 2.22222 9C2.46667 9 2.66667 8.7975 2.66667 8.55V4.95C3.6489 4.95 4.44443 4.1445 4.44443 3.15V0.45C4.44443 0.2025 4.24443 0 4 0C3.75557 0 3.55557 0.2025 3.55557 0.45V3.15Z" fill="black"/>
</svg>
