<svg width="7" height="9" viewBox="0 0 7 9" fill="none" xmlns="http://www.w3.org/2000/svg">
<path fill-rule="evenodd" clip-rule="evenodd" d="M2.9483 0.00585175C3.42119 1.27568 3.18767 1.98375 2.6447 2.52795C2.07257 3.1424 1.15597 3.59883 0.525449 4.49415C-0.32109 5.69375 -0.467043 8.31535 2.58633 9C1.30193 8.3212 1.02753 6.355 2.41118 5.132C2.05505 6.3199 2.72061 7.08063 3.54379 6.8056C4.3553 6.53055 4.88657 7.11572 4.86907 7.78282C4.85738 8.23927 4.68808 8.62548 4.20933 8.842C6.20602 8.49675 7 6.8407 7 5.58843C7 3.92653 5.52295 3.70415 6.27024 2.30559C5.38282 2.38167 5.08509 2.96685 5.1668 3.91482C5.21936 4.54682 4.57131 4.96815 4.0809 4.6931C3.68975 4.45317 3.69559 3.99675 4.04587 3.6515C4.77566 2.93172 5.06756 1.25813 2.9483 0.0117035L2.93663 0L2.9483 0.00585175Z" fill="black"/>
</svg>
