<svg width="8" height="9" viewBox="0 0 8 9" fill="none" xmlns="http://www.w3.org/2000/svg">
<g clip-path="url(#clip0_35_40)">
<path d="M6.18501 4.8582C6.12394 4.83633 6.0587 4.82553 5.99298 4.82634C5.92726 4.82718 5.86237 4.83963 5.80201 4.86303C5.74166 4.8864 5.68699 4.92027 5.64119 4.96263C5.59538 5.00502 5.55929 5.05509 5.53499 5.11002C5.5107 5.16495 5.49867 5.22363 5.49959 5.28273C5.50053 5.34183 5.51437 5.40021 5.54038 5.45448C5.56637 5.50878 5.60403 5.55792 5.65114 5.59914C5.69825 5.64033 5.75393 5.67279 5.81499 5.69466C6.54501 5.95548 7 6.36021 7 6.75147C7 7.39005 5.76999 8.10057 4 8.10057C2.23 8.10057 1 7.39005 1 6.75147C1 6.36021 1.455 5.95548 2.185 5.69466C2.30833 5.65053 2.40711 5.56413 2.45962 5.45448C2.51213 5.34486 2.51407 5.22096 2.465 5.11002C2.41593 4.99911 2.31989 4.91025 2.19799 4.86303C2.07609 4.81581 1.93833 4.81407 1.815 4.8582C0.68 5.26293 0 5.96898 0 6.75147C0 8.01063 1.755 9 4 9C6.24501 9 8 8.01063 8 6.75147C8 5.96898 7.32 5.26293 6.18501 4.8582ZM3.5 3.54054V6.75147C3.5 6.87072 3.55268 6.98511 3.64646 7.06944C3.74021 7.1538 3.86738 7.20117 4 7.20117C4.13262 7.20117 4.25979 7.1538 4.35354 7.06944C4.44732 6.98511 4.5 6.87072 4.5 6.75147V3.54054C4.97132 3.4311 5.3821 3.17079 5.65529 2.80842C5.9285 2.44605 6.04539 2.00651 5.98406 1.57217C5.92273 1.13784 5.68738 0.738534 5.3221 0.449106C4.95686 0.159679 4.48679 0 4 0C3.51321 0 3.04314 0.159679 2.67788 0.449106C2.31263 0.738534 2.07728 1.13784 2.01594 1.57217C1.9546 2.00651 2.07149 2.44605 2.3447 2.80842C2.61791 3.17079 3.02868 3.4311 3.5 3.54054ZM4 0.905256C4.19778 0.905256 4.39111 0.958005 4.55556 1.05683C4.72003 1.15566 4.84818 1.29613 4.92388 1.46048C4.99956 1.62483 5.01938 1.80567 4.9808 1.98014C4.94219 2.15461 4.84696 2.31487 4.70711 2.44065C4.56726 2.56644 4.38907 2.6521 4.19508 2.68681C4.0011 2.72151 3.80003 2.7037 3.6173 2.63562C3.43458 2.56755 3.2784 2.45227 3.16853 2.30436C3.05864 2.15645 3 1.98256 3 1.80467C3 1.56613 3.10536 1.33736 3.29289 1.16869C3.48044 1.00001 3.73479 0.905256 4 0.905256Z" fill="black"/>
</g>
<defs>
<clipPath id="clip0_35_40">
<rect width="8" height="9" fill="white"/>
</clipPath>
</defs>
</svg>
