<svg width="10" height="9" viewBox="0 0 10 9" fill="none" xmlns="http://www.w3.org/2000/svg">
<path d="M4 2.50009L2.375 4.12507C2.53 4.18507 2.65501 4.26008 2.75999 4.32008C2.945 4.43508 3.05498 4.50008 3.33499 4.50008C3.61501 4.50008 3.72499 4.43508 3.91 4.32008C4.13999 4.18507 4.45 4.00009 5.00498 4.00009C5.56 4.00009 5.87001 4.18507 6.09499 4.32008C6.28 4.43007 6.39499 4.50008 6.67 4.50008C6.94501 4.50008 7.06 4.43508 7.24501 4.32008C7.30501 4.28508 7.37498 4.24507 7.45 4.20509L4.24 1.00008C3.46501 0.225079 2.75001 -0.0049228 1.5 7.94888e-05V1.25008C2.41 1.24508 2.945 1.44508 3.50001 2.00007L4 2.50009ZM10 6.75008H9.98999H10ZM1.675 6.25009C1.95 6.25009 2.065 6.32007 2.25 6.43009C2.47501 6.56508 2.78498 6.75008 3.34 6.75008C3.89498 6.75008 4.20499 6.56508 4.43001 6.43009C4.61498 6.31506 4.72501 6.25009 5.00498 6.25009C5.27999 6.25009 5.39498 6.32007 5.57999 6.43009C5.80501 6.56508 6.11498 6.75008 6.67 6.75008C7.22498 6.75008 7.53499 6.56508 7.76001 6.43009C7.94498 6.31506 8.05501 6.25009 8.33498 6.25009C8.60999 6.25009 8.72498 6.32007 8.90999 6.43009C9.13501 6.56508 9.44001 6.74508 9.98999 6.75008V5.75007C9.71498 5.75007 9.59999 5.68009 9.41498 5.57007C9.19 5.43509 8.87999 5.25008 8.32501 5.25008C7.76999 5.25008 7.46001 5.43509 7.23499 5.57007C7.04999 5.68506 6.93499 5.75007 6.65999 5.75007C6.38498 5.75007 6.26999 5.68009 6.08498 5.57007C5.86 5.43509 5.54999 5.25008 4.99501 5.25008C4.43999 5.25008 4.13001 5.43509 3.90499 5.57007C3.71999 5.68506 3.61 5.75007 3.32999 5.75007C3.05498 5.75007 2.93999 5.68009 2.75498 5.57007C2.53 5.43509 2.22 5.25008 1.665 5.25008C1.11 5.25008 0.799999 5.43509 0.574999 5.57007C0.39 5.68506 0.279998 5.75007 0 5.75007V6.75008C0.555 6.75008 0.864998 6.56508 1.1 6.43009C1.285 6.31506 1.4 6.25009 1.675 6.25009ZM8.33498 7.50008C7.78 7.50008 7.46999 7.68509 7.24501 7.82007C7.06 7.93506 6.94501 8.00007 6.67 8.00007C6.39499 8.00007 6.28 7.93009 6.09499 7.82007C5.87001 7.68509 5.56 7.50008 5.00498 7.50008C4.45 7.50008 4.13999 7.68509 3.91 7.82007C3.72499 7.93506 3.61501 8.00007 3.33499 8.00007C3.05498 8.00007 2.945 7.93506 2.75999 7.82007C2.53501 7.68509 2.225 7.50008 1.67 7.50008C1.115 7.50008 0.804998 7.68509 0.574999 7.82007C0.39 7.93506 0.279998 8.00007 0 8.00007V9.00008C0.555 9.00008 0.864998 8.81508 1.095 8.68009C1.28 8.56506 1.395 8.50009 1.67 8.50009C1.945 8.50009 2.06 8.56506 2.245 8.68009C2.47 8.81508 2.78001 9.00008 3.33499 9.00008C3.89001 9.00008 4.19999 8.81508 4.43001 8.68009C4.61498 8.56506 4.72501 8.50009 5.00498 8.50009C5.27999 8.50009 5.39498 8.57007 5.57999 8.68009C5.80501 8.81508 6.11498 9.00008 6.67 9.00008C7.22498 9.00008 7.52999 8.81508 7.76001 8.68009C7.94498 8.56506 8.05501 8.50009 8.33498 8.50009C8.60999 8.50009 8.72498 8.57007 8.90999 8.68009C9.13501 8.81508 9.44498 9.00008 10 9.00008V8.00007C9.71999 8.00007 9.61 7.93506 9.42499 7.82007C9.20001 7.68509 8.89 7.50008 8.33498 7.50008Z" fill="black"/>
<path d="M7.25002 2.50013C7.94037 2.50013 8.50001 1.94049 8.50001 1.25012C8.50001 0.559768 7.94037 0.00012207 7.25002 0.00012207C6.55965 0.00012207 6 0.559768 6 1.25012C6 1.94049 6.55965 2.50013 7.25002 2.50013Z" fill="black"/>
</svg>
