<svg width="12" height="9" viewBox="0 0 12 9" fill="none" xmlns="http://www.w3.org/2000/svg">
<path d="M3.20179 6.52572e-07H2.42C1.88142 -0.000386215 1.35812 0.171248 0.933094 0.487689C0.508076 0.804126 0.205662 1.24725 0.073822 1.74678C-0.0065623 2.04564 -0.0214906 2.35719 0.029976 2.6618L0.176984 3.8439C0.188385 4.02842 0.202314 4.20416 0.215558 4.38228L0.216072 4.38915C0.245387 4.78328 0.276977 5.16951 0.310364 5.55056C0.35798 6.09947 0.406025 6.64835 0.441512 7.25203C0.442092 7.7155 0.634824 8.15979 0.977426 8.48749C1.32002 8.81521 1.78452 8.9995 2.269 9H3.31791C3.80247 8.99956 4.26706 8.81515 4.60955 8.48722C4.95207 8.15932 5.1445 7.71476 5.14458 7.25123C5.18048 6.66595 5.22767 6.12184 5.27487 5.57794C5.32245 5.02745 5.37006 4.47695 5.40432 3.90822L5.55508 2.67862C5.60874 2.35746 5.59151 2.02909 5.50454 1.71465C5.37516 1.22432 5.07836 0.789368 4.66121 0.478751C4.24406 0.168137 3.73045 -0.000355938 3.20179 6.52572e-07ZM0.903238 1.94771C0.988387 1.62473 1.18386 1.33814 1.45864 1.13352C1.73342 0.928886 2.07176 0.817888 2.42 0.818144H3.20179C3.54582 0.819695 3.87924 0.932169 4.14819 1.13739C4.41715 1.34262 4.60589 1.6286 4.68392 1.94913C4.73678 2.1504 4.74501 2.36005 4.70812 2.56455L4.58518 3.57138L3.43484 3.02001V2.45447C3.43371 2.34669 3.38813 2.24368 3.30806 2.16786C3.22798 2.09203 3.11988 2.04948 3.00721 2.04948C2.8945 2.04948 2.78639 2.09203 2.70632 2.16786C2.62624 2.24368 2.58069 2.34669 2.57956 2.45447V3.01617L1.0241 3.7344L0.876666 2.54655C0.841805 2.34736 0.850857 2.1434 0.903238 1.94771ZM4.29094 7.20309C4.29051 7.21129 4.29013 7.24382 4.29013 7.25183C4.28988 7.49842 4.18737 7.73481 4.0051 7.90914C3.8228 8.08346 3.57564 8.18149 3.31791 8.18166H2.26883C2.01107 8.18149 1.76392 8.08346 1.58164 7.90914C1.39936 7.73481 1.29684 7.49842 1.2966 7.25183C1.2966 7.24362 1.29622 7.1973 1.29579 7.18909C1.25902 6.59305 1.21101 6.03774 1.16258 5.48247C1.13768 5.19578 1.11282 4.90846 1.08916 4.61266L3.00383 3.72851L4.50893 4.4501C4.48168 4.80925 4.45284 5.16265 4.42249 5.51026C4.37491 6.06052 4.3273 6.61084 4.29094 7.20309ZM11.919 1.71445C11.7896 1.22416 11.4927 0.789247 11.0756 0.47867C10.6584 0.168096 10.1448 -0.00036603 9.61624 6.52572e-07H8.79957C8.26514 0.00139674 7.74671 0.174552 7.32748 0.491665C6.90829 0.808775 6.61265 1.25144 6.48805 1.74859C6.40833 2.04631 6.39324 2.35651 6.44378 2.66005L6.59496 3.8843C6.63129 4.47675 6.6789 5.02724 6.72648 5.57757C6.77361 6.12147 6.82076 6.66558 6.85597 7.25166C6.85653 7.71513 7.04928 8.15942 7.39187 8.48715C7.73447 8.81484 8.19895 8.99913 8.68344 8.99963H9.73251C9.97354 8.99903 10.2121 8.95294 10.4344 8.86396C10.6568 8.77501 10.8586 8.64492 11.0283 8.48119C11.198 8.31747 11.3322 8.12333 11.4234 7.90984C11.5144 7.69639 11.5606 7.46784 11.5592 7.23726C11.5955 6.64802 11.6435 6.09914 11.6912 5.55022C11.7247 5.16591 11.756 4.77908 11.7851 4.38969L11.7856 4.38117C11.7985 4.21045 11.8118 4.04087 11.8223 3.86752L11.9684 2.68064C12.0233 2.35883 12.0065 2.02956 11.919 1.71445ZM7.32604 1.91532C7.40879 1.60155 7.59869 1.32321 7.86564 1.12443C8.13256 0.92566 8.46126 0.817865 8.79957 0.818144H9.61642C9.96017 0.819611 10.2934 0.93189 10.5623 1.13685C10.8311 1.34181 11.0199 1.62749 11.0981 1.94771C11.1514 2.14976 11.1595 2.36031 11.1218 2.56556L10.978 3.7348L9.42167 3.016V2.45431C9.42054 2.34652 9.37496 2.24351 9.29489 2.16769C9.21481 2.09186 9.10671 2.04931 8.99404 2.04931C8.88136 2.04931 8.77323 2.09186 8.69315 2.16769C8.61308 2.24351 8.56753 2.34652 8.56641 2.45431V3.01987L7.41663 3.57097L7.29056 2.54598C7.25564 2.33572 7.26781 2.12079 7.32622 1.91538L7.32604 1.91532ZM10.7054 7.18906C10.705 7.19727 10.7046 7.24379 10.7046 7.2518C10.7043 7.49835 10.6019 7.73474 10.4196 7.90907C10.2374 8.08339 9.99024 8.18146 9.73251 8.18166H8.68344C8.42567 8.18149 8.17852 8.08346 7.99625 7.90914C7.81398 7.73481 7.71147 7.49842 7.71122 7.25183C7.71122 7.24362 7.71084 7.21109 7.71041 7.20309C7.67405 6.61084 7.62644 6.06052 7.57886 5.51022C7.54886 5.16332 7.51886 4.8145 7.49125 4.45061L8.99752 3.72851L10.9118 4.61252C10.8884 4.90607 10.8636 5.19471 10.8386 5.48247C10.7903 6.03774 10.7423 6.59305 10.7056 7.18909L10.7054 7.18906Z" fill="black"/>
</svg>
