<svg width="9" height="9" viewBox="0 0 9 9" fill="none" xmlns="http://www.w3.org/2000/svg">
<path d="M8.97997 3.4065C8.93182 3.25148 8.80376 3.13847 8.64967 3.11507L6.03587 2.71764L4.86691 0.23871C4.79798 0.0925493 4.65572 0 4.5 0C4.34424 0 4.20198 0.0925493 4.13308 0.23871L2.9642 2.71761L0.350339 3.11504C0.19622 3.13847 0.0681513 3.25148 0.0200336 3.40647C-0.0280841 3.56153 0.0120412 3.73168 0.123579 3.84545L2.01498 5.77471L1.56831 8.4994C1.54199 8.66005 1.60508 8.82242 1.73108 8.91821C1.80235 8.97244 1.88678 9 1.97161 9C2.03672 9 2.10211 8.98374 2.16198 8.95081L4.49997 7.66451L6.83794 8.95081C6.89816 8.98397 6.96411 8.99975 7.02944 9C7.25517 8.99966 7.43804 8.80808 7.43804 8.5718C7.43804 8.53892 7.4345 8.50686 7.42778 8.47612L6.98498 5.77474L8.87638 3.84545C8.98795 3.73168 9.02809 3.56153 8.97997 3.4065Z" fill="black"/>
</svg>
