<svg width="11" height="11" viewBox="0 0 11 11" fill="none" xmlns="http://www.w3.org/2000/svg">
<path d="M5.5 10C7.98529 10 10 7.98529 10 5.5C10 3.01471 7.98529 1 5.5 1C3.01471 1 1 3.01471 1 5.5C1 7.98529 3.01471 10 5.5 10Z" stroke="black" stroke-linecap="round" stroke-linejoin="round"/>
<path d="M4.46342 3.93712C4.52449 3.79258 4.61513 3.66245 4.72951 3.55501C4.84388 3.44758 4.97945 3.36529 5.12753 3.31337C5.2756 3.26146 5.43289 3.24109 5.58931 3.25356C5.74572 3.26604 5.8978 3.3111 6.03577 3.38585C6.17374 3.46056 6.29453 3.56335 6.39043 3.68755C6.48634 3.81175 6.55518 3.95461 6.59257 4.10701C6.62996 4.25941 6.63507 4.41794 6.60757 4.57239C6.58006 4.72688 6.52057 4.87391 6.43287 5.00401L4.375 7.75003V7.74977H6.625" stroke="black" stroke-linecap="round" stroke-linejoin="round"/>
</svg>
