<svg width="5" height="9" viewBox="0 0 5 9" fill="none" xmlns="http://www.w3.org/2000/svg">
<path d="M2.88461 1.67442C3.30771 1.67442 3.65385 1.29767 3.65385 0.837209C3.65385 0.376743 3.30771 0 2.88461 0C2.46154 0 2.11539 0.376743 2.11539 0.837209C2.11539 1.29767 2.46154 1.67442 2.88461 1.67442ZM1.46154 3.09767L0.476924 8.50185C0.426924 8.75722 0.611538 9 0.853847 9H0.884615C1.06539 9 1.21923 8.86606 1.26154 8.67349L1.88461 5.65116L2.69231 6.48836V8.5814C2.69231 8.81164 2.86539 9 3.07691 9C3.28847 9 3.46153 8.81164 3.46153 8.5814V6.22048C3.46153 5.99024 3.37691 5.77257 3.22309 5.61349L2.65385 5.02325L2.88461 3.76743C3.29615 4.28651 3.89229 4.65907 4.56153 4.77627C4.79229 4.81394 5 4.61301 5 4.35767C5 4.15257 4.86153 3.98092 4.67309 3.94743C4.08847 3.84277 3.60385 3.46606 3.34615 2.97209L2.96153 2.30233C2.74615 1.92977 2.31539 1.77907 1.94231 1.9507L0.469229 2.62884C0.184615 2.76279 0 3.06419 0 3.40325V4.39534C0 4.62558 0.173077 4.81394 0.384615 4.81394C0.596153 4.81394 0.769229 4.62558 0.769229 4.39534V3.39069L1.46154 3.09767Z" fill="black"/>
</svg>
